<svg id="Layer_1" data-name="Layer 1" xmlns="http://www.w3.org/2000/svg" viewBox="0 0 1870 700"><defs><style>.cls-1{fill:#fff;}</style></defs><title>SN_Light_02</title><polygon class="cls-1" points="468.16 233.42 468.16 466.83 390.36 466.83 390.36 311.22 234.75 311.22 234.75 233.42 468.16 233.42"/><rect class="cls-1" x="234.75" y="363.09" width="103.74" height="103.75"/><path class="cls-1" d="M692,314.37c-6.38-10.63-23.93-20.74-44.13-20.74-26.06,0-38.56,10.9-38.56,24.73,0,16.22,19.14,20.74,41.48,23.4,38.82,4.79,75,14.89,75,59.29,0,41.49-36.69,59.3-78.17,59.3-38,0-67.27-11.7-81.1-45.73l29.25-15.16C604,419.93,625.55,429,648.15,429c22.07,0,42.81-7.71,42.81-27.92,0-17.54-18.35-24.72-43.07-27.38-38-4.52-73.13-14.63-73.13-56.37,0-38.29,37.76-54,72.06-54.25,29,0,59,8.25,73.12,37Z"/><path class="cls-1" d="M859.41,438.81c-15.16,14.89-31.11,20.74-50.52,20.74-38,0-69.67-22.86-69.67-69.4s31.65-69.4,69.67-69.4c18.61,0,33,5.32,47.33,19.41L835.74,361.7a39.82,39.82,0,0,0-26.32-10.37c-21.8,0-37.76,16-37.76,38.82,0,25,17,38.29,37.23,38.29,10.37,0,20.74-2.92,28.72-10.9Z"/><path class="cls-1" d="M971.46,324.48h31.11V455.56H972l-1.6-19.14c-7.44,15.42-27.91,22.87-42.54,23.13-38.82.27-67.54-23.66-67.54-69.66,0-45.21,30.05-68.87,68.34-68.6,17.55,0,34.3,8.24,41.74,21.27Zm-78.71,65.41c0,25,17.29,39.88,38.82,39.88,51.06,0,51.06-79.5,0-79.5C910,350.27,892.75,364.89,892.75,389.89Z"/><path class="cls-1" d="M1059.47,269.7V455.56H1027.3V269.7Z"/><path class="cls-1" d="M1111.83,401.59c2.13,16.22,16.22,27.92,39.08,27.92,12,0,27.66-4.52,35.1-12.23l20.74,20.47c-13.82,14.36-36.42,21.27-56.37,21.27-45.2,0-72.06-27.92-72.06-69.93,0-39.88,27.13-68.6,69.67-68.6,43.87,0,71.26,27.12,66.21,81.1Zm71.26-26.86c-2.13-17-15.42-25.52-34-25.52-17.55,0-31.91,8.5-36.69,25.52Z"/><path class="cls-1" d="M1330.53,455.56V387c0-19.94-10.9-35.1-31.64-35.1-19.94,0-33.5,16.76-33.5,36.7v67h-32.18V324.21h29l2.13,17.82c13.3-13,26.59-19.68,43.08-19.68,30.84,0,55.57,23.13,55.57,64.35v68.86Z"/><path class="cls-1" d="M1417.88,324.48v68.6c0,19.94,10.9,35.1,31.64,35.1,19.94,0,33.51-16.76,33.51-36.7v-67h32.17V455.83h-29L1484.09,438c-13.56,13.3-26.06,19.68-44.41,19.68-31.37,0-54.24-23.66-54.24-64.35V324.48Z"/><path class="cls-1" d="M1584.84,287.52v37.22H1621v27.92h-36.43V409.3c0,12.49,6.92,18.61,17,18.61a37,37,0,0,0,15.69-4l9,27.66a72.61,72.61,0,0,1-26.85,5.58C1571,458.22,1552.4,442,1552.4,409.3V352.66h-24.46V324.74h24.46V291Z"/></svg>